<svg width="178" height="40" viewBox="0 0 178 40" fill="none" xmlns="http://www.w3.org/2000/svg">
<path d="M3.28108 12.1969C2.57356 10.7312 3.21141 8.97363 4.70577 8.27132C6.20012 7.56901 7.9851 8.18789 8.69262 9.65364L17.4531 27.8024C18.1606 29.2682 17.5228 31.0257 16.0284 31.728C14.534 32.4303 12.7491 31.8115 12.0415 30.3457L3.28108 12.1969Z" fill="#0C9EFF"/>
<g style="mix-blend-mode:luminosity">
<path d="M23.5852 17.6707C24.2937 16.2054 23.6563 14.4491 22.1615 13.7478C20.6666 13.0465 18.8804 13.6659 18.1718 15.1311L12.0499 27.7905C11.3413 29.2558 11.9787 31.0121 13.4736 31.7134C14.9685 32.4147 16.7547 31.7953 17.4633 30.3301L23.5852 17.6707Z" fill="#E31430"/>
</g>
<path d="M36.717 12.1941C37.4256 10.7288 36.7882 8.97252 35.2933 8.27125C33.7984 7.56998 32.0122 8.18931 31.3036 9.65457L22.5599 27.7357C21.8513 29.2009 22.4887 30.9572 23.9836 31.6585C25.4784 32.3598 27.2647 31.7405 27.9733 30.2752L36.717 12.1941Z" fill="#FFB933"/>
<path fill-rule="evenodd" clip-rule="evenodd" d="M17.4179 30.4201C17.4333 30.3908 17.4482 30.3612 17.4627 30.3312L23.588 17.6649C24.2966 16.1996 23.6592 14.4433 22.1643 13.742C20.6694 13.0407 18.8832 13.6601 18.1746 15.1253L14.751 22.205L17.46 27.8171C17.874 28.6748 17.8273 29.6325 17.4179 30.4201Z" fill="#FF2442"/>
<path fill-rule="evenodd" clip-rule="evenodd" d="M4.70455 8.26813C3.2102 8.97044 2.57234 10.728 3.27986 12.1937L12.0478 30.358C12.7553 31.8237 14.5403 32.4426 16.0346 31.7403C16.5841 31.4821 17.0177 31.0812 17.3113 30.6046C16.5228 31.8687 14.8712 32.3668 13.4741 31.7114C11.9792 31.0102 11.3418 29.2538 12.0504 27.7886L14.751 22.2039L8.6914 9.65044C7.98388 8.1847 6.19891 7.56581 4.70455 8.26813Z" fill="#0C9EFF"/>
<path d="M44.9179 17.016C44.8645 16.7387 44.9285 16.504 45.1099 16.312C45.2805 16.12 45.5099 16.024 45.7979 16.024C46.2885 16.024 46.5765 16.2587 46.6619 16.728C47.0352 18.6907 47.3392 20.28 47.5739 21.496C47.8085 22.7013 47.9685 23.5493 48.0539 24.04C48.2139 23.6133 48.4592 22.872 48.7899 21.816C49.1312 20.76 49.5632 19.3733 50.0859 17.656C50.2565 17.0693 50.6139 16.776 51.1579 16.776C51.3605 16.776 51.5525 16.84 51.7339 16.968C51.9045 17.096 52.0165 17.256 52.0699 17.448L54.2459 23.912C54.6619 21.7787 54.9765 20.152 55.1899 19.032C55.4139 17.912 55.5365 17.2827 55.5579 17.144C55.6325 16.7387 55.7392 16.4507 55.8779 16.28C56.0059 16.12 56.2245 16.04 56.5339 16.04C56.8219 16.04 57.0565 16.1253 57.2379 16.296C57.4299 16.4773 57.5045 16.7013 57.4619 16.968L55.5419 26.024C55.4672 26.3547 55.3605 26.6053 55.2219 26.776C55.0939 26.9253 54.8592 27.0107 54.5179 27.032C54.1979 27.032 53.9632 26.9413 53.8139 26.76C53.6645 26.5787 53.5419 26.3387 53.4459 26.04L51.1899 19.48C51.0405 19.9707 50.7845 20.76 50.4219 21.848C50.0592 22.936 49.5899 24.3387 49.0139 26.056C48.7899 26.7067 48.4165 27.0267 47.8939 27.016C47.4565 27.0053 47.1685 26.8613 47.0299 26.584C46.8805 26.3173 46.7365 25.8053 46.5979 25.048C46.2459 23.3307 45.9312 21.8107 45.6539 20.488C45.3872 19.1547 45.1632 18.0027 44.9819 17.032L44.9179 17.016ZM64.0934 16.056C65.5227 16.056 66.76 16.568 67.8054 17.592C68.84 18.616 69.3574 19.912 69.3574 21.48C69.3574 23.08 68.856 24.4293 67.8534 25.528C66.8507 26.6267 65.5867 27.176 64.0614 27.176C62.6747 27.176 61.4534 26.68 60.3974 25.688C59.3414 24.696 58.8134 23.4107 58.8134 21.832C58.8134 20.1253 59.352 18.7227 60.4294 17.624C61.496 16.536 62.7227 16.0027 64.1094 16.024L64.0934 16.056ZM67.5654 21.496C67.5547 20.3867 67.1867 19.4693 66.4614 18.744C65.7467 18.0293 64.8987 17.672 63.9174 17.672C63 17.672 62.216 18.056 61.5654 18.824C60.904 19.6027 60.5734 20.5627 60.5734 21.704C60.5734 22.8453 60.9147 23.7627 61.5974 24.456C62.28 25.16 63.128 25.512 64.1414 25.512C65.1014 25.512 65.9174 25.112 66.5894 24.312C67.2614 23.5013 67.592 22.568 67.5814 21.512L67.5654 21.496ZM71.2793 17.24C71.2793 16.5787 71.7006 16.232 72.5433 16.2C72.8099 16.1893 73.0553 16.184 73.2793 16.184C73.5139 16.1733 73.7326 16.168 73.9353 16.168C74.1806 16.168 74.4046 16.168 74.6073 16.168C74.8099 16.168 74.9859 16.1733 75.1353 16.184C76.2339 16.2267 77.1193 16.5467 77.7913 17.144C78.4633 17.7413 78.7993 18.552 78.7993 19.576C78.7993 20.3013 78.6073 20.936 78.2233 21.48C77.8393 22.024 77.3326 22.4027 76.7033 22.616L78.9753 25.704C79.1353 25.9173 79.2153 26.1093 79.2153 26.28C79.2153 26.504 79.1193 26.696 78.9273 26.856C78.7353 27.016 78.5219 27.096 78.2873 27.096C78.0313 27.1173 77.7753 26.9733 77.5193 26.664L75.0553 23.064H73.0713V24.648V26.136C73.0713 26.744 72.8206 27.0587 72.3193 27.08C71.9353 27.1013 71.6686 27.0373 71.5193 26.888C71.3699 26.7493 71.3059 26.4933 71.3273 26.12C71.3379 25.7787 71.3433 25.0053 71.3433 23.8C71.3433 22.584 71.3433 20.9253 71.3433 18.824C71.3433 18.7387 71.3433 18.6267 71.3433 18.488C71.3433 18.3493 71.3379 18.1893 71.3273 18.008C71.3166 17.8267 71.3113 17.6667 71.3113 17.528C71.3113 17.3893 71.3113 17.2773 71.3113 17.192L71.2793 17.24ZM74.7193 17.704C74.4206 17.704 74.1273 17.7093 73.8393 17.72C73.5513 17.72 73.2686 17.7253 72.9913 17.736L73.0073 21.576H74.6073C75.3219 21.576 75.8979 21.416 76.3353 21.096C76.7726 20.776 76.9966 20.2747 77.0073 19.592C77.0179 18.984 76.8259 18.5147 76.4313 18.184C76.0366 17.8533 75.4766 17.688 74.7513 17.688L74.7193 17.704ZM82.8373 21.384C84.4266 19.6347 85.8239 18.0293 87.0293 16.568C87.2959 16.2373 87.5679 16.072 87.8453 16.072C88.0906 16.072 88.3039 16.1573 88.4853 16.328C88.6773 16.5093 88.7733 16.7013 88.7733 16.904C88.7733 17.1493 88.6719 17.3893 88.4693 17.624C88.2559 17.8693 87.9199 18.2373 87.4613 18.728C87.0133 19.208 86.4426 19.816 85.7493 20.552L85.1893 21.176L87.4773 23.912L88.8212 25.464C89.0666 25.7093 89.1892 25.9653 89.1892 26.232C89.1892 26.4773 89.0879 26.6853 88.8853 26.856C88.6826 27.0267 88.4586 27.112 88.2133 27.112C87.9253 27.112 87.6746 26.9733 87.4613 26.696C87.4613 26.696 87.3013 26.4933 86.9813 26.088L84.0052 22.248C83.9306 22.3333 83.8399 22.4293 83.7333 22.536C83.6373 22.6427 83.5146 22.7707 83.3653 22.92C83.2159 23.0693 83.0933 23.192 82.9973 23.288C82.9119 23.384 82.8426 23.4587 82.7893 23.512L82.8053 26.328C82.8053 26.8187 82.5066 27.0747 81.9093 27.096C81.6213 27.096 81.4026 27.0267 81.2533 26.888C81.0933 26.7493 81.0133 26.5573 81.0133 26.312V25.784V25.112C81.0133 24.6107 81.0133 24.0293 81.0133 23.368C81.0133 22.696 81.0186 21.928 81.0293 21.064C81.0399 20.2 81.0453 19.4267 81.0453 18.744C81.0453 18.0613 81.0453 17.4587 81.0453 16.936C81.0453 16.36 81.3493 16.072 81.9573 16.072C82.5439 16.072 82.8373 16.3387 82.8373 16.872V19.176V21.384ZM96.9846 16.6C97.3366 16.7813 97.5126 17.0533 97.5126 17.416C97.5126 17.5973 97.438 17.7787 97.2886 17.96C97.15 18.1307 96.974 18.216 96.7606 18.216C96.6006 18.216 96.3446 18.1467 95.9926 18.008C95.4273 17.752 94.83 17.624 94.2006 17.624C93.6566 17.624 93.1873 17.7787 92.7926 18.088C92.4086 18.3973 92.2166 18.7813 92.2166 19.24C92.2166 19.432 92.2646 19.5973 92.3606 19.736C92.4566 19.8853 92.5526 19.9973 92.6486 20.072C92.7446 20.1467 92.9153 20.2267 93.1606 20.312C93.278 20.3547 93.3846 20.392 93.4806 20.424C93.5766 20.4453 93.6566 20.4667 93.7206 20.488C93.7846 20.5093 93.87 20.5307 93.9766 20.552C94.094 20.5733 94.2326 20.6053 94.3926 20.648C95.5233 20.8933 96.3873 21.2347 96.9846 21.672C97.5926 22.12 97.8966 22.808 97.8966 23.736C97.8966 24.7493 97.534 25.56 96.8086 26.168C96.094 26.7653 95.166 27.0747 94.0246 27.096C92.862 27.096 91.8486 26.8827 90.9846 26.456C90.5473 26.2427 90.3286 25.9547 90.3286 25.592C90.3286 25.3573 90.4033 25.1493 90.5526 24.968C90.702 24.7867 90.8886 24.696 91.1126 24.696C91.2406 24.696 91.4806 24.7547 91.8326 24.872C92.6006 25.256 93.326 25.448 94.0086 25.448C94.638 25.448 95.15 25.2987 95.5446 25C95.9393 24.7013 96.1366 24.3013 96.1366 23.8C96.1366 23.3413 95.9446 22.9893 95.5606 22.744C95.1766 22.5093 94.6326 22.3173 93.9286 22.168C93.6833 22.1147 93.4486 22.0613 93.2246 22.008C93.0113 21.944 92.814 21.88 92.6326 21.816C92.2806 21.6987 91.9286 21.528 91.5766 21.304C91.2353 21.1013 90.9793 20.8293 90.8086 20.488C90.6273 20.1467 90.5366 19.7627 90.5366 19.336C90.5366 18.3973 90.9206 17.608 91.6886 16.968C92.4566 16.328 93.358 16.008 94.3926 16.008C95.4273 16.008 96.3446 16.2 97.1446 16.584L96.9846 16.6ZM108.67 26.296C108.67 26.8187 108.361 27.08 107.742 27.08C107.145 27.08 106.846 26.8187 106.846 26.296V24.952L106.83 22.568C106.564 22.568 106.222 22.568 105.806 22.568C105.401 22.568 104.91 22.5733 104.334 22.584C103.758 22.5947 103.257 22.6 102.83 22.6C102.404 22.6 102.041 22.6 101.742 22.6L101.774 26.344C101.774 26.8347 101.46 27.08 100.83 27.08C100.244 27.08 99.9504 26.8293 99.9504 26.328C99.9504 26.1147 99.9504 25.7893 99.9504 25.352C99.961 24.9147 99.9717 24.36 99.9824 23.688C99.993 22.3653 99.993 21.3413 99.9824 20.616L99.9184 16.952C99.9184 16.408 100.233 16.136 100.862 16.136C101.438 16.136 101.726 16.3653 101.726 16.824V18.52C101.726 18.9253 101.726 19.3307 101.726 19.736C101.726 20.1413 101.732 20.5573 101.742 20.984H102.254H103.294H104.67H106.062L106.878 20.968V18.824V16.968C106.889 16.3813 107.193 16.088 107.79 16.088C108.377 16.088 108.67 16.376 108.67 16.952C108.67 17.8267 108.67 18.6533 108.67 19.432C108.67 20.2107 108.665 20.952 108.654 21.656L108.67 26.296ZM111.393 16.952C111.425 16.408 111.803 16.136 112.529 16.136C112.678 16.136 112.811 16.136 112.929 16.136C113.046 16.136 113.147 16.1413 113.233 16.152C113.617 16.152 114.011 16.152 114.417 16.152C114.822 16.152 115.238 16.1467 115.665 16.136C116.091 16.1253 116.427 16.12 116.673 16.12C116.929 16.12 117.099 16.12 117.185 16.12C117.761 16.12 118.049 16.36 118.049 16.84C118.07 17.2987 117.905 17.5653 117.553 17.64C117.435 17.6507 117.067 17.656 116.449 17.656C115.841 17.656 114.977 17.656 113.857 17.656H113.153V19.192L113.137 20.696V20.904H113.777C114.289 20.904 115.153 20.888 116.369 20.856C116.71 20.856 116.961 20.904 117.121 21C117.291 21.096 117.366 21.2987 117.345 21.608C117.345 22.1093 117.067 22.36 116.513 22.36H114.785H113.105C113.094 22.4667 113.089 22.6053 113.089 22.776C113.089 22.936 113.089 23.1333 113.089 23.368V24.376V25.4C113.515 25.4213 114.731 25.4213 116.737 25.4C116.95 25.3893 117.121 25.384 117.249 25.384C117.377 25.3733 117.467 25.368 117.521 25.368C117.99 25.368 118.225 25.6293 118.225 26.152C118.225 26.7067 117.926 26.9947 117.329 27.016H113.025C112.353 27.016 111.905 26.952 111.681 26.824C111.457 26.696 111.339 26.4187 111.329 25.992V25.4V25.144V24.472V23.512V22.264V20.84V18.904V16.952H111.393ZM120.127 16.952C120.159 16.408 120.538 16.136 121.263 16.136C121.412 16.136 121.546 16.136 121.663 16.136C121.78 16.136 121.882 16.1413 121.967 16.152C122.351 16.152 122.746 16.152 123.151 16.152C123.556 16.152 123.972 16.1467 124.399 16.136C124.826 16.1253 125.162 16.12 125.407 16.12C125.663 16.12 125.834 16.12 125.919 16.12C126.495 16.12 126.783 16.36 126.783 16.84C126.804 17.2987 126.639 17.5653 126.287 17.64C126.17 17.6507 125.802 17.656 125.183 17.656C124.575 17.656 123.711 17.656 122.591 17.656H121.887V19.192L121.871 20.696V20.904H122.511C123.023 20.904 123.887 20.888 125.103 20.856C125.444 20.856 125.695 20.904 125.855 21C126.026 21.096 126.1 21.2987 126.079 21.608C126.079 22.1093 125.802 22.36 125.247 22.36H123.519H121.839C121.828 22.4667 121.823 22.6053 121.823 22.776C121.823 22.936 121.823 23.1333 121.823 23.368V24.376V25.4C122.25 25.4213 123.466 25.4213 125.471 25.4C125.684 25.3893 125.855 25.384 125.983 25.384C126.111 25.3733 126.202 25.368 126.255 25.368C126.724 25.368 126.959 25.6293 126.959 26.152C126.959 26.7067 126.66 26.9947 126.063 27.016H121.759C121.087 27.016 120.639 26.952 120.415 26.824C120.191 26.696 120.074 26.4187 120.063 25.992V25.4V25.144V24.472V23.512V22.264V20.84V18.904V16.952H120.127ZM132.126 16.2C132.211 16.2 132.392 16.2 132.67 16.2C132.947 16.2 133.326 16.1947 133.806 16.184C134.286 16.1733 134.67 16.168 134.958 16.168C135.256 16.168 135.464 16.168 135.582 16.168C136.115 16.168 136.382 16.4133 136.382 16.904C136.382 17.48 136.099 17.768 135.534 17.768H132.878V18.568C132.878 19.1013 132.883 19.9973 132.894 21.256C132.904 22.5147 132.92 24.152 132.942 26.168C132.942 26.7973 132.622 27.112 131.982 27.112C131.427 27.112 131.155 26.8187 131.166 26.232L131.198 20.344C131.198 20.1093 131.192 19.7787 131.182 19.352C131.182 18.9253 131.176 18.392 131.166 17.752C130.952 17.7627 130.616 17.768 130.158 17.768C129.699 17.768 129.107 17.768 128.382 17.768C127.88 17.768 127.63 17.496 127.63 16.952C127.63 16.728 127.694 16.5413 127.822 16.392C127.95 16.2427 128.147 16.1627 128.414 16.152H128.91H130.11H132.158L132.126 16.2Z" fill="#0C9EFF"/>
<path d="M138.017 17.832C137.772 17.832 137.58 17.7627 137.441 17.624C137.302 17.4853 137.233 17.2933 137.233 17.048C137.233 16.4827 137.516 16.2 138.081 16.2H141.441C141.569 16.2 141.745 16.2 141.969 16.2C142.193 16.2 142.46 16.1947 142.769 16.184C143.078 16.1733 143.345 16.168 143.569 16.168C143.804 16.168 143.996 16.168 144.145 16.168C144.732 16.168 145.025 16.4293 145.025 16.952C145.025 17.1973 144.886 17.5227 144.609 17.928L144.081 18.728L140.225 24.264L139.409 25.464C140.316 25.464 141.313 25.448 142.401 25.416C143.489 25.384 144.129 25.368 144.321 25.368C144.609 25.368 144.817 25.448 144.945 25.608C145.073 25.768 145.137 25.9653 145.137 26.2C145.137 26.7333 144.812 27 144.161 27C143.489 27.0107 142.662 27.016 141.681 27.016C140.71 27.016 139.569 27.016 138.257 27.016C137.66 27.016 137.324 26.8347 137.249 26.472C137.217 26.312 137.206 26.168 137.217 26.04C137.292 25.6453 137.548 25.1493 137.985 24.552L138.993 23.16L142.065 18.84L142.753 17.784H140.305H138.001L138.017 17.832ZM151.5 16.056C152.929 16.056 154.166 16.568 155.212 17.592C156.246 18.616 156.764 19.912 156.764 21.48C156.764 23.08 156.262 24.4293 155.26 25.528C154.257 26.6267 152.993 27.176 151.468 27.176C150.081 27.176 148.86 26.68 147.804 25.688C146.748 24.696 146.22 23.4107 146.22 21.832C146.22 20.1253 146.758 18.7227 147.836 17.624C148.902 16.536 150.129 16.0027 151.516 16.024L151.5 16.056ZM154.972 21.496C154.961 20.3867 154.593 19.4693 153.868 18.744C153.153 18.0293 152.305 17.672 151.324 17.672C150.406 17.672 149.622 18.056 148.972 18.824C148.31 19.6027 147.98 20.5627 147.98 21.704C147.98 22.8453 148.321 23.7627 149.004 24.456C149.686 25.16 150.534 25.512 151.548 25.512C152.508 25.512 153.324 25.112 153.996 24.312C154.668 23.5013 154.998 22.568 154.988 21.512L154.972 21.496ZM160.446 26.072C160.446 26.7333 160.163 27.064 159.598 27.064C159 27.064 158.691 26.7973 158.67 26.264C158.67 25.9333 158.67 25.4373 158.67 24.776C158.67 24.1147 158.675 23.2773 158.686 22.264V18.68V16.92C158.686 16.6853 158.792 16.4933 159.006 16.344C159.219 16.1947 159.47 16.12 159.758 16.12C160.003 16.12 160.206 16.184 160.366 16.312C160.536 16.4507 160.712 16.648 160.894 16.904L164.622 22.168L165.902 23.992C165.891 23.4373 165.88 22.8933 165.87 22.36C165.87 21.816 165.87 21.2773 165.87 20.744L165.838 17.224C165.827 16.8613 165.886 16.5787 166.014 16.376C166.142 16.184 166.382 16.088 166.734 16.088C167.299 16.088 167.582 16.4293 167.582 17.112V19.8V22.472C167.592 23.048 167.598 23.6453 167.598 24.264C167.608 24.872 167.614 25.5067 167.614 26.168C167.614 26.424 167.512 26.632 167.31 26.792C167.096 26.952 166.84 27.032 166.542 27.032C166.328 27.032 166.147 26.9733 165.998 26.856C165.859 26.7493 165.683 26.5467 165.47 26.248L160.382 18.968C160.382 19.1387 160.387 19.8107 160.398 20.984C160.408 22.1573 160.424 23.8533 160.446 26.072ZM170.268 16.952C170.3 16.408 170.678 16.136 171.404 16.136C171.553 16.136 171.686 16.136 171.804 16.136C171.921 16.136 172.022 16.1413 172.108 16.152C172.492 16.152 172.886 16.152 173.292 16.152C173.697 16.152 174.113 16.1467 174.54 16.136C174.966 16.1253 175.302 16.12 175.548 16.12C175.804 16.12 175.974 16.12 176.06 16.12C176.636 16.12 176.924 16.36 176.924 16.84C176.945 17.2987 176.78 17.5653 176.428 17.64C176.31 17.6507 175.942 17.656 175.324 17.656C174.716 17.656 173.852 17.656 172.732 17.656H172.028V19.192L172.012 20.696V20.904H172.652C173.164 20.904 174.028 20.888 175.244 20.856C175.585 20.856 175.836 20.904 175.996 21C176.166 21.096 176.241 21.2987 176.22 21.608C176.22 22.1093 175.942 22.36 175.388 22.36H173.66H171.98C171.969 22.4667 171.964 22.6053 171.964 22.776C171.964 22.936 171.964 23.1333 171.964 23.368V24.376V25.4C172.39 25.4213 173.606 25.4213 175.612 25.4C175.825 25.3893 175.996 25.384 176.124 25.384C176.252 25.3733 176.342 25.368 176.396 25.368C176.865 25.368 177.1 25.6293 177.1 26.152C177.1 26.7067 176.801 26.9947 176.204 27.016H171.9C171.228 27.016 170.78 26.952 170.556 26.824C170.332 26.696 170.214 26.4187 170.204 25.992V25.4V25.144V24.472V23.512V22.264V20.84V18.904V16.952H170.268Z" fill="#FFB933"/>
</svg>
