<svg width="24" height="24" viewBox="0 0 24 24" fill="none" xmlns="http://www.w3.org/2000/svg">
<path d="M23.5 12C23.5 18.3513 18.3513 23.5 12 23.5C5.64872 23.5 0.5 18.3513 0.5 12C0.5 5.64873 5.64872 0.5 12 0.5C18.3513 0.5 23.5 5.64873 23.5 12Z" stroke="white"/>
<path d="M19.6013 10.0851C19.6013 8.28958 18.1349 6.82324 16.3394 6.82324H7.90052C6.105 6.82324 4.63867 8.28958 4.63867 10.0851V14.0352C4.63867 15.8307 6.105 17.2971 7.90052 17.2971H16.3394C18.1349 17.2971 19.6013 15.8307 19.6013 14.0352V10.0851ZM14.2447 12.2696L10.8631 14.125C10.7135 14.2148 10.5938 14.0951 10.5938 13.9454V10.115C10.5938 9.93546 10.7434 9.84569 10.8631 9.93546L14.2447 11.8806C14.4242 11.9704 14.3943 12.1799 14.2447 12.2696Z" fill="white"/>
</svg>
