<svg width="24" height="24" viewBox="0 0 24 24" fill="none" xmlns="http://www.w3.org/2000/svg">
<path d="M23.5 12C23.5 18.3513 18.3513 23.5 12 23.5C5.64873 23.5 0.5 18.3513 0.5 12C0.5 5.64872 5.64873 0.5 12 0.5C18.3513 0.5 23.5 5.64872 23.5 12Z" stroke="white"/>
<path fill-rule="evenodd" clip-rule="evenodd" d="M9.99521 12.0596V19.4212C9.99521 19.5409 10.085 19.6008 10.1748 19.6008H12.898C13.0177 19.6008 13.0775 19.511 13.0775 19.4212V11.9399H15.0526C15.1423 11.9399 15.2321 11.8502 15.2321 11.7604L15.4117 9.516C15.4117 9.39629 15.3219 9.30652 15.2321 9.30652H13.0775V7.72048C13.0775 7.33145 13.3768 7.0322 13.7658 7.0322H15.292C15.4117 7.0322 15.4715 6.94243 15.4715 6.85265V4.60826C15.4715 4.48856 15.3817 4.42871 15.292 4.42871H12.7184C11.1922 4.42871 9.96529 5.65565 9.96529 7.18183V9.36637H8.58873C8.46903 9.36637 8.40918 9.45614 8.40918 9.54592V11.7903C8.40918 11.91 8.49895 11.9699 8.58873 11.9699H9.96529V12.0596H9.99521Z" fill="white"/>
</svg>
