<svg width="56" height="56" viewBox="0 0 56 56" fill="none" xmlns="http://www.w3.org/2000/svg">
<path d="M27.9825 33.9289C26.4705 33.9289 25.0496 33.3389 23.9817 32.2697L6.96424 15.2197C6.63475 14.8902 6.63605 14.3562 6.96554 14.0267C7.29503 13.6973 7.82898 13.6986 8.15847 14.028L25.1747 31.0781C25.9235 31.8282 26.9211 32.2424 27.9825 32.2424C29.0439 32.2424 30.0401 31.8295 30.7903 31.0781L47.8052 14.0333C48.1347 13.7038 48.6686 13.7025 48.9981 14.0319C49.3276 14.3614 49.3276 14.8954 48.9994 15.2249L31.9832 32.2697C30.9153 33.3389 29.4945 33.9289 27.9825 33.9289Z" fill="white"/>
<path d="M48.7289 42.5715H7.27067C6.80443 42.5715 6.42676 42.1938 6.42676 41.7289V14.2707C6.42676 14.0467 6.51532 13.8331 6.6742 13.6742C6.83178 13.5166 7.04667 13.4268 7.27067 13.4268L48.7289 13.4307C49.1951 13.4307 49.5715 13.8083 49.5715 14.2733V41.7276C49.5728 42.1951 49.1951 42.5715 48.7289 42.5715ZM8.11327 40.8863H47.8863V15.1172L8.11327 15.1146V40.8863Z" fill="white"/>
<path d="M48.0999 39.2923C47.9033 39.2923 47.7066 39.2246 47.5464 39.0852L37.3023 30.1682C36.5717 29.5327 35.7591 28.9753 34.8891 28.5116C34.4776 28.2928 34.3213 27.7823 34.5401 27.3708C34.7589 26.9593 35.2694 26.803 35.6809 27.0218C36.6642 27.544 37.581 28.1743 38.4093 28.8945L48.6534 37.8116C49.005 38.1176 49.0415 38.6503 48.7354 39.0006C48.5701 39.1946 48.3356 39.2923 48.0999 39.2923ZM8.10679 39.1191C7.87107 39.1191 7.63665 39.0201 7.46865 38.8287C7.1639 38.477 7.20167 37.9444 7.5533 37.6396L17.6606 28.8763C18.4603 28.1821 19.3511 27.5688 20.307 27.053C20.7172 26.8316 21.229 26.9853 21.4491 27.3955C21.6705 27.8058 21.5168 28.3176 21.1066 28.5377C20.2601 28.9935 19.4722 29.5366 18.765 30.15L8.65897 38.9133C8.49879 39.0514 8.30214 39.1191 8.10679 39.1191Z" fill="white"/>
</svg>
