<svg width="182" height="38" viewBox="0 0 182 38" fill="none" xmlns="http://www.w3.org/2000/svg">
<g filter="url(#filter0_f_776_1987)">
<path d="M15.3782 8.47C16.2182 8.87 16.6382 9.59 16.6382 10.63C16.6382 11.15 16.4282 11.65 16.0082 12.13C15.5882 12.61 15.0982 12.85 14.5382 12.85C14.1182 12.85 13.4582 12.68 12.5582 12.34C11.7382 12.04 10.9282 11.89 10.1282 11.89C9.4482 11.89 8.8682 12.07 8.3882 12.43C7.9082 12.79 7.6682 13.22 7.6682 13.72C7.6682 14.24 7.9382 14.63 8.4782 14.89C9.0182 15.15 9.8182 15.39 10.8782 15.61C12.9982 16.03 14.6182 16.69 15.7382 17.59C16.8582 18.49 17.4182 19.85 17.4182 21.67C17.4182 23.75 16.6982 25.37 15.2582 26.53C13.8182 27.71 12.0082 28.31 9.8282 28.33C7.5482 28.35 5.5682 27.97 3.8882 27.19C2.8882 26.73 2.3882 25.99 2.3882 24.97C2.3882 24.29 2.5982 23.69 3.0182 23.17C3.4382 22.65 3.9382 22.39 4.5182 22.39C5.0382 22.39 5.6882 22.54 6.4682 22.84C6.5282 22.84 6.7282 22.91 7.0682 23.05C7.2482 23.13 7.3982 23.19 7.5182 23.23C7.6582 23.27 7.7782 23.31 7.8782 23.35C8.0582 23.41 8.3382 23.47 8.7182 23.53C9.0982 23.59 9.4682 23.62 9.8282 23.62C10.5482 23.62 11.1482 23.44 11.6282 23.08C12.1082 22.72 12.3482 22.25 12.3482 21.67C12.3482 20.75 11.3582 20.09 9.3782 19.69C7.2782 19.27 5.6182 18.62 4.3982 17.74C3.1982 16.88 2.5982 15.63 2.5982 13.99C2.5982 12.13 3.3382 10.55 4.8182 9.25C6.2982 7.95 8.0882 7.3 10.1882 7.3C12.2682 7.3 14.0282 7.65 15.4682 8.35L15.3782 8.47ZM23.4213 19.48C23.4413 17.32 23.4513 15.45 23.4513 13.87C23.4713 12.27 23.4813 10.93 23.4813 9.85C23.4813 9.15 23.7013 8.61 24.1413 8.23C24.5813 7.85 25.1813 7.66 25.9412 7.66C26.9013 7.66 27.5813 7.86 27.9813 8.26C28.3813 8.66 28.5813 9.32 28.5813 10.24C28.5613 10.88 28.5513 11.96 28.5513 13.48C28.5513 14.98 28.5513 16.92 28.5513 19.3C28.5513 20.7 28.8713 21.78 29.5113 22.54C30.1313 23.28 31.0313 23.65 32.2113 23.65C33.3113 23.65 34.1513 23.24 34.7313 22.42C35.2913 21.62 35.5913 20.58 35.6313 19.3C35.7113 19.1 35.7413 17.51 35.7213 14.53C35.7013 13.03 35.6813 11.91 35.6613 11.17C35.6613 10.43 35.6613 10.05 35.6613 10.03C35.6613 8.45 36.5213 7.66 38.2413 7.66C39.1213 7.66 39.7513 7.88 40.1313 8.32C40.5313 8.78 40.7313 9.5 40.7313 10.48L40.7913 18.82C40.7713 21.6 39.9913 23.86 38.4513 25.6C36.9113 27.34 34.8013 28.21 32.1213 28.21C29.5013 28.21 27.4013 27.43 25.8213 25.87C24.2413 24.31 23.4513 22.15 23.4513 19.39L23.4213 19.48ZM55.1671 7.63C57.2271 7.63 58.9071 8.19 60.2071 9.31C61.5071 10.43 62.1571 11.8 62.1571 13.42C62.1571 14.36 61.9171 15.19 61.4371 15.91C60.9571 16.63 60.3371 17.13 59.5771 17.41C60.6171 17.63 61.4771 18.12 62.1571 18.88C62.8571 19.68 63.2071 20.62 63.2071 21.7C63.2071 23.58 62.7071 25.04 61.7071 26.08C60.7271 27.1 59.3571 27.7 57.5971 27.88C56.5371 28 54.7771 28.06 52.3171 28.06L49.7371 28.03C49.1171 28.03 48.5971 27.82 48.1771 27.4C47.7571 26.98 47.5171 26.4 47.4571 25.66L47.4871 22.45L47.5471 18.55C47.5471 18.09 47.5371 17.51 47.5171 16.81C47.5171 16.11 47.5071 15.29 47.4871 14.35C47.4671 13.41 47.4471 12.59 47.4271 11.89C47.4271 11.19 47.4271 10.61 47.4271 10.15C47.4271 9.53 47.5971 9 47.9371 8.56C48.2771 8.12 48.6971 7.86 49.1971 7.78C49.6571 7.7 50.3871 7.65 51.3871 7.63C52.3871 7.59 53.6671 7.57 55.2271 7.57L55.1671 7.63ZM52.4371 19.93L52.4671 23.95H55.4671C56.2471 23.93 56.8771 23.75 57.3571 23.41C57.8371 23.09 58.0771 22.58 58.0771 21.88C58.0771 20.52 57.1471 19.84 55.2871 19.84L52.4371 19.93ZM57.4171 13.78C57.4171 13.22 57.2071 12.76 56.7871 12.4C56.3471 12.02 55.8071 11.82 55.1671 11.8H54.3871H53.2171H52.4371V15.97H53.6971H55.0471C55.7471 15.97 56.3171 15.78 56.7571 15.4C57.1971 15.02 57.4171 14.48 57.4171 13.78ZM81.302 8.47C82.142 8.87 82.562 9.59 82.562 10.63C82.562 11.15 82.352 11.65 81.932 12.13C81.512 12.61 81.022 12.85 80.462 12.85C80.042 12.85 79.382 12.68 78.482 12.34C77.662 12.04 76.852 11.89 76.052 11.89C75.372 11.89 74.792 12.07 74.312 12.43C73.832 12.79 73.592 13.22 73.592 13.72C73.592 14.24 73.862 14.63 74.402 14.89C74.942 15.15 75.742 15.39 76.802 15.61C78.922 16.03 80.542 16.69 81.662 17.59C82.782 18.49 83.342 19.85 83.342 21.67C83.342 23.75 82.622 25.37 81.182 26.53C79.742 27.71 77.932 28.31 75.752 28.33C73.472 28.35 71.492 27.97 69.812 27.19C68.812 26.73 68.312 25.99 68.312 24.97C68.312 24.29 68.522 23.69 68.942 23.17C69.362 22.65 69.862 22.39 70.442 22.39C70.962 22.39 71.612 22.54 72.392 22.84C72.452 22.84 72.652 22.91 72.992 23.05C73.172 23.13 73.322 23.19 73.442 23.23C73.582 23.27 73.702 23.31 73.802 23.35C73.982 23.41 74.262 23.47 74.642 23.53C75.022 23.59 75.392 23.62 75.752 23.62C76.472 23.62 77.072 23.44 77.552 23.08C78.032 22.72 78.272 22.25 78.272 21.67C78.272 20.75 77.282 20.09 75.302 19.69C73.202 19.27 71.542 18.62 70.322 17.74C69.122 16.88 68.522 15.63 68.522 13.99C68.522 12.13 69.262 10.55 70.742 9.25C72.222 7.95 74.012 7.3 76.112 7.3C78.192 7.3 79.952 7.65 81.392 8.35L81.302 8.47ZM103.025 8.26C103.625 8.54 104.075 8.84 104.375 9.16C104.675 9.5 104.815 9.95 104.795 10.51C104.755 11.21 104.575 11.77 104.255 12.19C103.915 12.61 103.405 12.82 102.725 12.82C102.345 12.82 101.795 12.68 101.075 12.4C100.215 12.06 99.3051 11.89 98.3451 11.89C97.0251 11.89 95.8851 12.46 94.9251 13.6C93.9851 14.72 93.4951 16.2 93.4551 18.04C93.4151 19.72 93.9251 21.07 94.9851 22.09C96.0251 23.09 97.1851 23.61 98.4651 23.65C99.2651 23.67 100.235 23.47 101.375 23.05C102.115 22.67 102.685 22.49 103.085 22.51C103.725 22.51 104.225 22.78 104.585 23.32C104.945 23.88 105.115 24.49 105.095 25.15C105.055 25.99 104.305 26.74 102.845 27.4C101.405 28.06 99.7851 28.37 97.9851 28.33C96.7451 28.29 95.5651 28.04 94.4451 27.58C93.3251 27.1 92.2951 26.44 91.3551 25.6C90.4551 24.78 89.7251 23.71 89.1651 22.39C88.6251 21.13 88.3751 19.7 88.4151 18.1C88.4351 16 88.9651 14.1 90.0051 12.4C91.0251 10.72 92.3051 9.46 93.8451 8.62C95.3651 7.78 96.9551 7.38 98.6151 7.42C100.395 7.44 101.855 7.7 102.995 8.2L103.025 8.26ZM110.655 10.21C110.655 9.39 110.935 8.76 111.495 8.32C112.055 7.88 112.775 7.64 113.655 7.6C114.335 7.58 114.965 7.55 115.545 7.51H116.595H118.005C120.285 7.51 122.145 8.11 123.585 9.31C125.025 10.51 125.745 12.18 125.745 14.32C125.745 15.52 125.445 16.63 124.845 17.65C124.245 18.67 123.445 19.42 122.445 19.9C122.945 20.6 124.085 22.1 125.865 24.4C126.245 24.86 126.435 25.37 126.435 25.93C126.435 26.55 126.175 27.07 125.655 27.49C125.155 27.89 124.525 28.11 123.765 28.15C123.425 28.15 123.125 28.08 122.865 27.94C122.585 27.78 122.385 27.63 122.265 27.49C122.205 27.41 122.125 27.31 122.025 27.19C121.945 27.07 121.835 26.93 121.695 26.77C121.655 26.71 121.505 26.49 121.245 26.11C120.985 25.71 120.615 25.15 120.135 24.43C119.175 22.99 118.425 21.91 117.885 21.19H116.775H115.665C115.665 21.43 115.665 21.75 115.665 22.15C115.665 22.53 115.675 23 115.695 23.56C115.715 24.12 115.725 24.59 115.725 24.97C115.725 25.33 115.725 25.61 115.725 25.81C115.725 27.25 115.045 28.02 113.685 28.12C112.625 28.16 111.875 28 111.435 27.64C110.995 27.28 110.775 26.63 110.775 25.69C110.815 21.79 110.815 17.54 110.775 12.94C110.775 12.78 110.775 12.59 110.775 12.37C110.775 12.15 110.765 11.89 110.745 11.59C110.725 11.29 110.715 11.03 110.715 10.81C110.715 10.59 110.715 10.41 110.715 10.27L110.655 10.21ZM117.795 11.74H116.685H115.605L115.635 16.93H117.465C118.385 16.93 119.165 16.72 119.805 16.3C120.425 15.88 120.755 15.25 120.795 14.41C120.815 13.55 120.585 12.89 120.105 12.43C119.605 11.97 118.845 11.74 117.825 11.74H117.795ZM132.559 15.22C132.559 14.02 132.559 12.97 132.559 12.07C132.559 11.17 132.549 10.4 132.529 9.76C132.509 8.96 132.749 8.38 133.249 8.02C133.749 7.66 134.379 7.48 135.139 7.48C135.819 7.48 136.389 7.66 136.849 8.02C137.309 8.38 137.539 8.87 137.539 9.49C137.539 10.81 137.539 12.04 137.539 13.18C137.539 14.32 137.549 15.4 137.569 16.42V18.07V19.81V21.01L137.599 26.02C137.619 26.7 137.379 27.22 136.879 27.58C136.359 27.94 135.749 28.12 135.049 28.12C134.309 28.12 133.689 27.92 133.189 27.52C132.709 27.12 132.479 26.55 132.499 25.81V24.55V23.08L132.559 15.19V15.22ZM152.316 7.63C154.376 7.63 156.056 8.19 157.356 9.31C158.656 10.43 159.306 11.8 159.306 13.42C159.306 14.36 159.066 15.19 158.586 15.91C158.106 16.63 157.486 17.13 156.726 17.41C157.766 17.63 158.626 18.12 159.306 18.88C160.006 19.68 160.356 20.62 160.356 21.7C160.356 23.58 159.856 25.04 158.856 26.08C157.876 27.1 156.506 27.7 154.746 27.88C153.686 28 151.926 28.06 149.466 28.06L146.886 28.03C146.266 28.03 145.746 27.82 145.326 27.4C144.906 26.98 144.666 26.4 144.606 25.66L144.636 22.45L144.696 18.55C144.696 18.09 144.686 17.51 144.666 16.81C144.666 16.11 144.656 15.29 144.636 14.35C144.616 13.41 144.596 12.59 144.576 11.89C144.576 11.19 144.576 10.61 144.576 10.15C144.576 9.53 144.746 9 145.086 8.56C145.426 8.12 145.846 7.86 146.346 7.78C146.806 7.7 147.536 7.65 148.536 7.63C149.536 7.59 150.816 7.57 152.376 7.57L152.316 7.63ZM149.586 19.93L149.616 23.95H152.616C153.396 23.93 154.026 23.75 154.506 23.41C154.986 23.09 155.226 22.58 155.226 21.88C155.226 20.52 154.296 19.84 152.436 19.84L149.586 19.93ZM154.566 13.78C154.566 13.22 154.356 12.76 153.936 12.4C153.496 12.02 152.956 11.82 152.316 11.8H151.536H150.366H149.586V15.97H150.846H152.196C152.896 15.97 153.466 15.78 153.906 15.4C154.346 15.02 154.566 14.48 154.566 13.78ZM166.27 9.73C166.29 9.09 166.53 8.57 166.99 8.17C167.43 7.79 168 7.6 168.7 7.6C169.34 7.6 169.7 7.61 169.78 7.63H173.89H176.47H177.61C178.21 7.63 178.69 7.81 179.05 8.17C179.39 8.51 179.58 8.96 179.62 9.52C179.64 10.76 179.25 11.51 178.45 11.77C178.27 11.85 176.14 11.89 172.06 11.89H171.28V13.18L171.22 15.85V15.88H171.91C172.13 15.88 172.42 15.88 172.78 15.88C173.14 15.88 173.58 15.87 174.1 15.85C174.62 15.83 175.03 15.82 175.33 15.82C175.65 15.82 175.86 15.82 175.96 15.82C176.86 15.82 177.51 15.95 177.91 16.21C178.33 16.49 178.53 17.07 178.51 17.95C178.47 19.33 177.78 20.02 176.44 20.02H171.16C171.14 20.18 171.13 20.38 171.13 20.62C171.13 20.84 171.13 21.12 171.13 21.46V22.6V23.74C172.23 23.78 173.79 23.78 175.81 23.74C176.43 23.72 176.92 23.71 177.28 23.71C177.66 23.69 177.91 23.68 178.03 23.68C179.29 23.68 179.92 24.41 179.92 25.87C179.92 27.31 179.25 28.07 177.91 28.15H169.48C168.32 28.15 167.5 28 167.02 27.7C166.54 27.4 166.26 26.85 166.18 26.05C166.16 25.87 166.14 25.71 166.12 25.57C166.12 25.41 166.12 25.27 166.12 25.15C166.12 25.11 166.12 24.96 166.12 24.7C166.12 24.44 166.13 24.08 166.15 23.62C166.19 22.68 166.22 21.5 166.24 20.08C166.26 19.36 166.27 18.69 166.27 18.07C166.29 17.43 166.3 16.85 166.3 16.33V13.03V9.73H166.27Z" fill="white" fill-opacity="0.52"/>
</g>
<path d="M14.5799 6.44C15.3199 6.76 15.6899 7.36 15.6899 8.24C15.6899 8.64 15.5199 9.06 15.1799 9.5C14.8399 9.92 14.4199 10.13 13.9199 10.13C13.4599 10.13 12.8899 9.98 12.2099 9.68C11.2499 9.3 10.2799 9.11 9.29992 9.11C8.43992 9.11 7.70992 9.35 7.10992 9.83C6.50992 10.31 6.20992 10.89 6.20992 11.57C6.20992 12.23 6.50992 12.71 7.10992 13.01C7.70992 13.31 8.62992 13.58 9.86992 13.82C11.9899 14.28 13.6099 14.94 14.7299 15.8C15.8499 16.68 16.4099 18 16.4099 19.76C16.4099 21.74 15.7199 23.31 14.3399 24.47C12.9599 25.65 11.1799 26.25 8.99992 26.27C6.73992 26.31 4.79992 25.92 3.17992 25.1C2.25992 24.68 1.79992 24.04 1.79992 23.18C1.79992 22.62 1.96992 22.12 2.30992 21.68C2.62992 21.26 3.04992 21.05 3.56992 21.05C4.04992 21.05 4.58992 21.18 5.18992 21.44C6.60992 22.06 7.84992 22.37 8.90992 22.37C9.82992 22.37 10.6099 22.14 11.2499 21.68C11.8699 21.24 12.1799 20.64 12.1799 19.88C12.1799 19.18 11.8699 18.64 11.2499 18.26C10.6099 17.88 9.73992 17.58 8.63992 17.36C6.57992 16.98 4.95992 16.36 3.77992 15.5C2.61992 14.66 2.03992 13.44 2.03992 11.84C2.03992 10.02 2.75992 8.48 4.19992 7.22C5.63992 5.96 7.36992 5.33 9.38992 5.33C10.4099 5.33 11.3399 5.43 12.1799 5.63C13.0399 5.81 13.8399 6.08 14.5799 6.44ZM22.7465 17.63C22.7665 15.29 22.7765 13.3 22.7765 11.66C22.7965 10 22.8065 8.66 22.8065 7.64C22.8065 7.02 22.9865 6.54 23.3465 6.2C23.7265 5.86 24.2265 5.69 24.8465 5.69C25.6465 5.69 26.2165 5.86 26.5565 6.2C26.8765 6.52 27.0365 7.06 27.0365 7.82C27.0165 8.28 27.0065 9.31 27.0065 10.91C27.0065 12.51 27.0065 14.69 27.0065 17.45C27.0065 19.09 27.3765 20.31 28.1165 21.11C28.8765 21.93 29.9265 22.34 31.2665 22.34C32.5465 22.34 33.5265 21.88 34.2065 20.96C34.9065 20.02 35.2665 18.84 35.2865 17.42C35.3065 16.94 35.3165 16.44 35.3165 15.92C35.3365 15.4 35.3465 14.86 35.3465 14.3C35.3465 13.74 35.3465 13.16 35.3465 12.56C35.3465 11.94 35.3365 11.3 35.3165 10.64C35.2965 9.98 35.2865 9.4 35.2865 8.9C35.2865 8.38 35.2865 7.95 35.2865 7.61C35.2865 6.29 35.9965 5.63 37.4165 5.63C38.1565 5.63 38.6865 5.82 39.0065 6.2C39.3465 6.6 39.5165 7.2 39.5165 8L39.5465 16.85C39.5465 19.67 38.7965 21.93 37.2965 23.63C35.7965 25.33 33.7165 26.18 31.0565 26.18C28.5165 26.18 26.4965 25.42 24.9965 23.9C23.4965 22.38 22.7465 20.25 22.7465 17.51V17.63ZM53.8666 5.51C55.8266 5.51 57.4566 6.05 58.7566 7.13C60.0366 8.21 60.6766 9.57 60.6766 11.21C60.6766 12.21 60.4266 13.08 59.9266 13.82C59.4066 14.58 58.7666 15.12 58.0066 15.44C59.1066 15.72 59.9966 16.24 60.6766 17C61.3766 17.8 61.7266 18.76 61.7266 19.88C61.7266 21.72 61.2366 23.14 60.2566 24.14C59.2566 25.16 57.9066 25.76 56.2066 25.94C55.7066 25.98 55.0266 26.01 54.1666 26.03C53.3066 26.07 52.2466 26.09 50.9866 26.09L48.5266 26.06C47.9666 26.06 47.5066 25.88 47.1466 25.52C46.8066 25.18 46.6166 24.65 46.5766 23.93L46.6066 19.64L46.6366 14.66C46.6366 14.26 46.6366 13.78 46.6366 13.22C46.6366 12.66 46.6266 12 46.6066 11.24C46.5866 10.48 46.5766 9.82 46.5766 9.26C46.5766 8.7 46.5766 8.23 46.5766 7.85C46.5766 7.27 46.7266 6.8 47.0266 6.44C47.3466 6.06 47.7466 5.83 48.2266 5.75C49.1466 5.63 51.0366 5.57 53.8966 5.57L53.8666 5.51ZM50.6866 17.51L50.7466 22.46C50.9066 22.48 51.2666 22.49 51.8266 22.49C52.3866 22.49 53.1766 22.49 54.1966 22.49C55.1966 22.45 56.0066 22.23 56.6266 21.83C57.2466 21.41 57.5566 20.78 57.5566 19.94C57.5566 18.28 56.4166 17.45 54.1366 17.45L50.6866 17.51ZM56.6566 11.42C56.6566 10.7 56.3866 10.13 55.8466 9.71C55.3266 9.31 54.6366 9.09 53.7766 9.05H52.8766H51.5566H50.6866V14.21C51.1866 14.21 51.6966 14.21 52.2166 14.21C52.7366 14.19 53.2766 14.17 53.8366 14.15C54.6966 14.15 55.3866 13.91 55.9066 13.43C56.4266 12.95 56.6866 12.27 56.6866 11.39L56.6566 11.42ZM79.9764 6.44C80.7164 6.76 81.0864 7.36 81.0864 8.24C81.0864 8.64 80.9164 9.06 80.5764 9.5C80.2364 9.92 79.8164 10.13 79.3164 10.13C78.8564 10.13 78.2864 9.98 77.6064 9.68C76.6464 9.3 75.6764 9.11 74.6964 9.11C73.8364 9.11 73.1064 9.35 72.5064 9.83C71.9064 10.31 71.6064 10.89 71.6064 11.57C71.6064 12.23 71.9064 12.71 72.5064 13.01C73.1064 13.31 74.0264 13.58 75.2664 13.82C77.3864 14.28 79.0064 14.94 80.1264 15.8C81.2464 16.68 81.8064 18 81.8064 19.76C81.8064 21.74 81.1164 23.31 79.7364 24.47C78.3564 25.65 76.5764 26.25 74.3964 26.27C72.1364 26.31 70.1964 25.92 68.5764 25.1C67.6564 24.68 67.1964 24.04 67.1964 23.18C67.1964 22.62 67.3664 22.12 67.7064 21.68C68.0264 21.26 68.4464 21.05 68.9664 21.05C69.4464 21.05 69.9864 21.18 70.5864 21.44C72.0064 22.06 73.2464 22.37 74.3064 22.37C75.2264 22.37 76.0064 22.14 76.6464 21.68C77.2664 21.24 77.5764 20.64 77.5764 19.88C77.5764 19.18 77.2664 18.64 76.6464 18.26C76.0064 17.88 75.1364 17.58 74.0364 17.36C71.9764 16.98 70.3564 16.36 69.1764 15.5C68.0164 14.66 67.4364 13.44 67.4364 11.84C67.4364 10.02 68.1564 8.48 69.5964 7.22C71.0364 5.96 72.7664 5.33 74.7864 5.33C75.8064 5.33 76.7364 5.43 77.5764 5.63C78.4364 5.81 79.2364 6.08 79.9764 6.44ZM101.643 6.26C102.743 6.74 103.283 7.4 103.263 8.24C103.223 8.84 103.063 9.31 102.783 9.65C102.483 10.01 102.053 10.19 101.493 10.19C101.093 10.15 100.593 10 99.993 9.74C98.933 9.32 97.913 9.11 96.933 9.11C95.433 9.11 94.133 9.75 93.033 11.03C91.913 12.33 91.343 13.98 91.323 15.98C91.303 17.8 91.873 19.31 93.033 20.51C94.193 21.69 95.543 22.3 97.083 22.34C98.163 22.34 99.263 22.07 100.383 21.53C101.083 21.17 101.593 21 101.913 21.02C102.433 21.02 102.843 21.24 103.143 21.68C103.443 22.14 103.583 22.65 103.563 23.21C103.543 23.99 102.813 24.69 101.373 25.31C99.933 25.95 98.373 26.25 96.693 26.21C94.113 26.19 91.863 25.26 89.943 23.42C88.023 21.6 87.083 19.17 87.123 16.13C87.163 13.99 87.683 12.09 88.683 10.43C89.703 8.75 90.963 7.49 92.463 6.65C93.943 5.81 95.523 5.41 97.203 5.45C98.963 5.45 100.433 5.72 101.613 6.26H101.643ZM109.514 8C109.514 7.26 109.744 6.7 110.204 6.32C110.684 5.94 111.334 5.73 112.154 5.69C112.954 5.67 113.704 5.64 114.404 5.6H116.774C118.954 5.64 120.724 6.24 122.084 7.4C123.424 8.56 124.094 10.16 124.094 12.2C124.094 13.48 123.764 14.63 123.104 15.65C122.444 16.67 121.564 17.39 120.464 17.81C120.784 18.27 122.074 19.98 124.334 22.94C124.674 23.4 124.844 23.85 124.844 24.29C124.844 24.81 124.624 25.25 124.184 25.61C123.744 25.95 123.224 26.14 122.624 26.18C122.344 26.18 122.104 26.12 121.904 26C121.724 25.9 121.564 25.78 121.424 25.64C121.304 25.54 121.144 25.35 120.944 25.07C120.904 25.01 120.734 24.77 120.434 24.35C120.154 23.91 119.744 23.29 119.204 22.49C118.124 20.91 117.284 19.71 116.684 18.89H115.154H113.624C113.624 19.15 113.624 19.5 113.624 19.94C113.624 20.38 113.634 20.92 113.654 21.56C113.674 22.2 113.684 22.73 113.684 23.15C113.684 23.57 113.684 23.89 113.684 24.11C113.684 25.37 113.104 26.04 111.944 26.12C111.104 26.14 110.494 26 110.114 25.7C109.754 25.4 109.574 24.84 109.574 24.02C109.594 20.3 109.594 15.91 109.574 10.85C109.574 10.69 109.574 10.49 109.574 10.25C109.574 10.01 109.564 9.72 109.544 9.38C109.524 9.04 109.514 8.76 109.514 8.54C109.514 8.3 109.514 8.1 109.514 7.94V8ZM116.324 9.23C115.624 9.23 115.044 9.23 114.584 9.23C114.144 9.23 113.814 9.24 113.594 9.26L113.624 15.44H116.054C117.154 15.44 118.074 15.18 118.814 14.66C119.554 14.14 119.934 13.36 119.954 12.32C119.974 11.3 119.674 10.52 119.054 9.98C118.734 9.7 118.344 9.51 117.884 9.41C117.444 9.29 116.924 9.23 116.324 9.23ZM131.151 13.49V10.73V7.46C131.131 6.82 131.331 6.33 131.751 5.99C132.151 5.67 132.671 5.51 133.311 5.51C133.871 5.51 134.351 5.66 134.751 5.96C135.131 6.26 135.321 6.68 135.321 7.22V14.33V19.01L135.351 24.29C135.351 24.91 135.151 25.37 134.751 25.67C134.351 25.97 133.841 26.12 133.221 26.12C132.601 26.12 132.091 25.95 131.691 25.61C131.291 25.29 131.111 24.81 131.151 24.17V22.91V21.5V13.43V13.49ZM150.136 5.51C152.096 5.51 153.726 6.05 155.026 7.13C156.306 8.21 156.946 9.57 156.946 11.21C156.946 12.21 156.696 13.08 156.196 13.82C155.676 14.58 155.036 15.12 154.276 15.44C155.376 15.72 156.266 16.24 156.946 17C157.646 17.8 157.996 18.76 157.996 19.88C157.996 21.72 157.506 23.14 156.526 24.14C155.526 25.16 154.176 25.76 152.476 25.94C151.976 25.98 151.296 26.01 150.436 26.03C149.576 26.07 148.516 26.09 147.256 26.09L144.796 26.06C144.236 26.06 143.776 25.88 143.416 25.52C143.076 25.18 142.886 24.65 142.846 23.93L142.876 19.64L142.906 14.66C142.906 14.26 142.906 13.78 142.906 13.22C142.906 12.66 142.896 12 142.876 11.24C142.856 10.48 142.846 9.82 142.846 9.26C142.846 8.7 142.846 8.23 142.846 7.85C142.846 7.27 142.996 6.8 143.296 6.44C143.616 6.06 144.016 5.83 144.496 5.75C145.416 5.63 147.306 5.57 150.166 5.57L150.136 5.51ZM146.956 17.51L147.016 22.46C147.176 22.48 147.536 22.49 148.096 22.49C148.656 22.49 149.446 22.49 150.466 22.49C151.466 22.45 152.276 22.23 152.896 21.83C153.516 21.41 153.826 20.78 153.826 19.94C153.826 18.28 152.686 17.45 150.406 17.45L146.956 17.51ZM152.926 11.42C152.926 10.7 152.656 10.13 152.116 9.71C151.596 9.31 150.906 9.09 150.046 9.05H149.146H147.826H146.956V14.21C147.456 14.21 147.966 14.21 148.486 14.21C149.006 14.19 149.546 14.17 150.106 14.15C150.966 14.15 151.656 13.91 152.176 13.43C152.696 12.95 152.956 12.27 152.956 11.39L152.926 11.42ZM164.396 7.43C164.416 7.13 164.456 6.87 164.516 6.65C164.576 6.43 164.716 6.24 164.936 6.08C165.356 5.78 165.896 5.63 166.556 5.63H167.756C168.676 5.63 169.556 5.63 170.396 5.63C171.236 5.63 172.046 5.62 172.826 5.6C173.606 5.58 174.206 5.57 174.626 5.57C175.046 5.57 175.296 5.57 175.376 5.57C175.956 5.57 176.396 5.72 176.696 6.02C176.976 6.32 177.136 6.72 177.176 7.22C177.216 8.24 176.856 8.86 176.096 9.08C175.676 9.14 173.456 9.17 169.436 9.17H168.386V11.24L168.326 13.97V14.18H169.286C170.126 14.18 170.916 14.18 171.656 14.18C172.396 14.16 173.086 14.14 173.726 14.12C174.506 14.12 175.076 14.24 175.436 14.48C175.796 14.72 175.966 15.21 175.946 15.95C175.926 17.11 175.326 17.69 174.146 17.69H168.326C168.306 17.85 168.296 18.07 168.296 18.35C168.296 18.63 168.296 18.97 168.296 19.37V22.43C169.496 22.43 170.576 22.43 171.536 22.43C172.496 22.41 173.336 22.39 174.056 22.37H175.046H175.916C176.996 22.37 177.536 22.97 177.536 24.17C177.536 25.43 176.916 26.08 175.676 26.12H167.456C166.256 26.12 165.436 25.99 164.996 25.73C164.556 25.47 164.306 24.93 164.246 24.11C164.206 23.73 164.206 23.4 164.246 23.12C164.246 23.08 164.246 22.95 164.246 22.73C164.246 22.51 164.256 22.19 164.276 21.77C164.296 20.93 164.326 19.79 164.366 18.35C164.386 17.63 164.396 16.94 164.396 16.28C164.396 15.62 164.396 14.98 164.396 14.36V10.88V7.46V7.43Z" fill="white"/>
<defs>
<filter id="filter0_f_776_1987" x="0.388672" y="5.2998" width="181.532" height="25.0898" filterUnits="userSpaceOnUse" color-interpolation-filters="sRGB">
<feFlood flood-opacity="0" result="BackgroundImageFix"/>
<feBlend mode="normal" in="SourceGraphic" in2="BackgroundImageFix" result="shape"/>
<feGaussianBlur stdDeviation="1" result="effect1_foregroundBlur_776_1987"/>
</filter>
</defs>
</svg>
