<svg width="24" height="24" viewBox="0 0 24 24" fill="none" xmlns="http://www.w3.org/2000/svg">
<path d="M23.5 12C23.5 18.3513 18.3513 23.5 12 23.5C5.64873 23.5 0.5 18.3513 0.5 12C0.5 5.64872 5.64873 0.5 12 0.5C18.3513 0.5 23.5 5.64872 23.5 12Z" stroke="white"/>
<path d="M19.302 7.36138C18.8232 7.57085 18.3145 7.69056 17.8057 7.78033C18.0451 7.75041 18.4042 7.30153 18.5539 7.12198C18.7633 6.85265 18.9429 6.5534 19.0626 6.22422C19.0626 6.1943 19.0925 6.16437 19.0626 6.13445C19.0327 6.13445 19.0027 6.13445 18.9728 6.13445C18.4042 6.4337 17.8357 6.64317 17.2072 6.82272C17.1474 6.82272 17.1175 6.82272 17.0875 6.7928C17.0277 6.73295 16.9978 6.6731 16.9379 6.64317C16.6686 6.4337 16.3993 6.25414 16.0701 6.10452C15.6511 5.92497 15.2022 5.86512 14.7534 5.89504C14.3045 5.92497 13.8855 6.04467 13.4965 6.25414C13.1075 6.46362 12.7484 6.73295 12.4791 7.09205C12.1798 7.45115 11.9703 7.87011 11.8805 8.28906C11.7908 8.70801 11.7908 9.12696 11.8506 9.57584C11.8506 9.63569 11.8506 9.66562 11.7908 9.63569C9.36683 9.27659 7.33192 8.40876 5.68603 6.52347C5.62618 6.4337 5.56633 6.4337 5.50648 6.52347C4.78828 7.60078 5.14738 9.33644 6.04514 10.1743C6.16484 10.294 6.28454 10.4137 6.43416 10.5035C6.37431 10.5035 5.77581 10.4437 5.26708 10.1743C5.20723 10.1145 5.14738 10.1444 5.14738 10.2342C5.14738 10.3539 5.14738 10.4437 5.17731 10.5933C5.32693 11.6706 6.07506 12.6881 7.09252 13.0771C7.21222 13.1369 7.36184 13.1669 7.48155 13.1968C7.24214 13.2566 7.00274 13.2866 6.31446 13.2267C6.22469 13.1968 6.19476 13.2566 6.22469 13.3464C6.73342 14.723 7.84065 15.1419 8.64863 15.3813C8.76833 15.4113 8.8581 15.4113 8.97781 15.4412C8.97781 15.4412 8.9778 15.4412 8.94788 15.4711C8.67855 15.8901 7.72095 16.1893 7.30199 16.3389C6.49401 16.6083 5.62618 16.7579 4.78828 16.6681C4.63865 16.6382 4.63865 16.6382 4.5788 16.6681C4.54888 16.698 4.5788 16.728 4.60873 16.7579C4.78828 16.8776 4.96783 16.9674 5.11746 17.0571C5.65611 17.3265 6.22469 17.5659 6.79327 17.7155C9.81571 18.5534 13.2272 17.925 15.4716 15.6806C17.2671 13.915 17.8656 11.4611 17.8656 9.03719C17.8656 8.94741 17.9853 8.88756 18.0451 8.82771C18.494 8.46861 18.883 8.04966 19.2122 7.60078C19.302 7.511 19.2721 7.3913 19.2721 7.36138C19.3618 7.33145 19.3618 7.33145 19.302 7.36138Z" fill="white"/>
<path fill-rule="evenodd" clip-rule="evenodd" d="M9.45703 18.0446C9.45703 18.0146 9.72703 18.0446 9.45703 18.0446C9.45703 18.0146 9.48703 18.0446 9.45703 18.0446Z" fill="white"/>
</svg>
